<?xml version="1.0" encoding="UTF-8"?>
<svg width="92px" height="92px" viewBox="0 0 92 92" version="1.1" xmlns="http://www.w3.org/2000/svg" xmlns:xlink="http://www.w3.org/1999/xlink">
    <!-- Generator: Sketch 43.1 (39012) - http://www.bohemiancoding.com/sketch -->
    <title>用户头像</title>
    <desc>Created with Sketch.</desc>
    <defs>
        <circle id="path-1" cx="46" cy="46" r="46"></circle>
    </defs>
    <g id="个人中心" stroke="none" stroke-width="1" fill="none" fill-rule="evenodd">
        <g id="个人中心主页--设置" transform="translate(-745.000000, -316.000000)">
            <g id="用户头像" transform="translate(745.000000, 316.000000)">
                <g id="默认头像-2">
                    <mask id="mask-2" fill="white">
                        <use xlink:href="#path-1"></use>
                    </mask>
                    <use id="Mask" fill="#EDEDED" xlink:href="#path-1"></use>
                    <path d="M54.5126077,25.2158395 C54.5126077,25.2158395 48.1926318,20.8197758 38.3451368,23.7441534 C26.0551528,28.3598252 30.3905902,46.6432352 30.3905902,46.6432352 C30.3905902,46.6432352 27.400122,51.0317531 31.8955818,54.9487903 C31.8250678,54.9935446 33.1679554,60.8623352 37.7344495,63.4448112 C37.7075508,63.4760952 37.7344495,70.6766642 37.7344495,70.6766642 C37.7344495,70.6766642 37.3690894,74.1993989 28.1255559,76.5847638 C18.8820224,78.9701287 18.2794336,82.8327379 18.2794336,82.8327379 L23.5789905,91.612881 L47.6228993,94.213607 L75.2319699,91.0940493 L75.1170389,81.7314357 C75.1170389,81.7314357 69.9989331,76.7714097 62.2557704,75.6405186 C55.1971344,73.7793154 55.6363826,70.268176 55.6363826,70.268176 L55.6363826,63.2857997 C55.6363826,63.2857997 60.8685506,59.3397027 61.5621605,54.9663072 C61.6005058,54.8809018 65.934975,51.882998 63.2781118,46.5439986 C64.255045,41.3214875 64.0583802,30.0648236 58.6316515,26.6532556 C56.6516406,25.4680378 54.5126077,25.2158395 54.5126077,25.2158395 Z" id="Path-2" fill="#D8D8D8" mask="url(#mask-2)"></path>
                </g>
            </g>
        </g>
    </g>
</svg>